<?xml version="1.0" encoding="UTF-8"?>
<svg id="Layer_2" data-name="Layer 2" xmlns="http://www.w3.org/2000/svg" viewBox="0 0 132.37 132.37">
  <defs>
    <style>
      .cls-1 {
        fill: #4d4d4f;
      }

      .cls-2 {
        fill: #90278e;
      }

      .cls-3 {
        fill: #2e3191;
      }

      .cls-4 {
        fill: #fff;
      }

      .cls-5 {
        fill: #00b8f1;
      }

      .cls-6 {
        fill: #8bc53f;
      }

      .cls-7 {
        fill: #f37920;
      }

      .cls-8 {
        fill: #fcb813;
      }

      .cls-9 {
        fill: #ec1c24;
      }
    </style>
  </defs>
  <g id="Layer_1-2" data-name="Layer 1">
    <g>
      <circle class="cls-4" cx="66.18" cy="66.18" r="66.18"/>
      <g>
        <g>
          <path class="cls-9" d="M20.86,31.67h6.54c.41,0,.62.24.62.72v18.7c0,.32.14.48.41.48h10.37c.53,0,.79.22.79.66v4.24c0,.21-.07.38-.21.53s-.36.22-.65.22h-17.6c-.37,0-.62-.07-.74-.21-.13-.14-.19-.36-.19-.66v-23.91c0-.53.22-.79.66-.79Z"/>
          <path class="cls-9" d="M45.24,55.92c-1.81-1.1-3.22-2.64-4.22-4.6s-1.5-4.22-1.5-6.77.53-4.98,1.59-6.96c1.06-1.97,2.53-3.51,4.41-4.61,1.88-1.1,4.05-1.65,6.51-1.65,2.07,0,3.87.37,5.41,1.12s2.77,1.69,3.7,2.84,1.53,2.34,1.81,3.58c.11.48.13.79.05.93-.08.14-.26.23-.53.28l-5.89.9c-.28,0-.45-.06-.52-.17-.07-.11-.13-.29-.17-.52-.12-.64-.33-1.24-.65-1.77-.32-.54-.76-.98-1.31-1.33-.55-.34-1.24-.52-2.07-.52s-1.58.24-2.2.71c-.62.47-1.1,1.26-1.43,2.38-.33,1.11-.5,2.65-.5,4.6,0,2.07.18,3.67.55,4.81s.88,1.93,1.55,2.38c.67.45,1.43.67,2.31.67.48,0,.92-.05,1.31-.16.39-.1.74-.26,1.05-.46s.57-.46.79-.76c.22-.3.41-.64.57-1.03l.1-.31c.14-.39.03-.58-.31-.58h-3.24c-.23,0-.4-.05-.52-.16-.12-.1-.17-.3-.17-.6v-3.31c0-.39.24-.58.72-.58h9.64c.44,0,.76.1.98.29.22.19.33.45.33.77v11.33c0,.16-.05.3-.16.41-.1.12-.25.17-.43.17h-1.31c-.21,0-.4-.05-.57-.16-.17-.1-.35-.27-.53-.5l-1.38-2c-.05-.07-.1-.1-.16-.1s-.13.06-.22.17c-.41.39-.91.82-1.48,1.28s-1.31.85-2.2,1.17c-.9.32-2.02.48-3.38.48-2.41,0-4.52-.55-6.34-1.65Z"/>
          <path class="cls-9" d="M66.72,57c-.15-.15-.22-.33-.22-.53v-23.91c0-.25.08-.46.24-.64.16-.17.37-.26.62-.26h10.26c3.56,0,6.27.57,8.13,1.7,1.86,1.14,2.79,2.82,2.79,5.05,0,1.19-.32,2.21-.97,3.05s-1.83,1.66-3.55,2.46c-.05.02-.07.06-.07.12s.02.1.07.12c1.91.71,3.24,1.54,4,2.48.76.94,1.14,2.15,1.14,3.62,0,2.37-.9,4.12-2.7,5.25-1.8,1.14-4.56,1.71-8.28,1.71h-10.88c-.23,0-.42-.08-.57-.22ZM78.17,41.66c.41,0,.78-.06,1.1-.17.32-.11.6-.28.83-.5.23-.22.41-.47.53-.74.13-.28.19-.58.19-.93,0-.76-.28-1.36-.84-1.81-.56-.45-1.25-.67-2.05-.67h-2.82c-.53,0-.79.23-.79.69v3.38c0,.5.19.76.59.76h3.27ZM78,52.06c1.01,0,1.77-.28,2.27-.83.5-.55.76-1.16.76-1.83,0-.48-.12-.91-.36-1.27s-.57-.66-1-.86c-.43-.21-.93-.31-1.5-.31h-3.07c-.53,0-.79.24-.79.72v3.62c0,.51.19.76.59.76h3.1Z"/>
          <path class="cls-9" d="M90.44,32.46c0-.23.07-.42.21-.57.14-.15.36-.22.65-.22h20.6c.3,0,.52.07.65.22.14.15.21.34.21.57v4.1c0,.44-.25.66-.76.66h-6.1c-.28,0-.41.12-.41.34v18.91c0,.5-.22.76-.65.76h-6.55c-.41,0-.62-.23-.62-.69v-18.84c0-.32-.13-.48-.38-.48h-6.06c-.53,0-.79-.22-.79-.66v-4.1Z"/>
        </g>
        <g>
          <path class="cls-3" d="M24.05,70.64c-.19,0-.29.09-.29.27v5.49c0,.36-.2.53-.62.53h-3.04c-.19,0-.32-.04-.39-.11s-.1-.2-.1-.36v-14.34c0-.29.12-.43.35-.43h3.45c.23,0,.35.13.35.39v5.01c0,.26.11.39.33.39h4.09c.22,0,.33-.13.33-.39v-5.01c0-.26.12-.39.35-.39h3.45c.23,0,.35.14.35.43v14.34c0,.16-.03.28-.1.36s-.2.11-.39.11h-3.04c-.41,0-.62-.18-.62-.53v-5.49c0-.18-.1-.27-.29-.27h-4.17Z"/>
          <path class="cls-3" d="M38.97,61.68c.23,0,.35.13.35.39v14.3c0,.21-.05.35-.15.43-.1.08-.26.12-.46.12h-3.04c-.19,0-.32-.04-.39-.11s-.1-.2-.1-.36v-14.34c0-.29.12-.43.35-.43h3.45Z"/>
          <path class="cls-3" d="M49.71,64.7c-.4-.25-1.02-.37-1.84-.37s-1.4.13-1.77.4c-.37.27-.56.58-.56.93,0,.15.04.31.12.46.08.16.23.31.44.46.21.15.52.27.91.37l3.33.9c1.29.34,2.23.9,2.82,1.69.59.78.88,1.68.88,2.71s-.26,1.85-.77,2.58c-.51.73-1.24,1.3-2.19,1.7-.94.4-2.08.6-3.39.6-.97,0-1.89-.11-2.74-.33-.86-.22-1.61-.53-2.26-.94-.65-.4-1.14-.88-1.47-1.43-.08-.14-.12-.25-.1-.34.01-.09.09-.19.23-.3l1.85-1.27c.18-.12.33-.18.44-.16.12.02.21.08.28.18.32.41.63.74.95,1s.67.44,1.08.56c.4.12.89.17,1.45.17.82,0,1.48-.12,1.97-.36s.74-.6.74-1.08c0-.19-.05-.37-.15-.55-.1-.17-.26-.32-.47-.46s-.5-.25-.87-.35l-3.12-.82c-.81-.22-1.5-.55-2.08-.99s-1.02-.95-1.33-1.54-.46-1.23-.46-1.91c0-.88.25-1.67.75-2.39s1.21-1.29,2.13-1.72c.92-.42,2-.64,3.25-.64.79,0,1.55.09,2.27.27.72.18,1.36.43,1.93.76s1.02.71,1.35,1.15c.05.1.1.19.13.29.03.1-.01.19-.13.29l-2.01,1.46c-.08.07-.16.09-.24.07-.08-.02-.18-.1-.32-.24-.27-.3-.61-.58-1.02-.82Z"/>
          <path class="cls-3" d="M54.81,62.12c0-.12.03-.23.1-.31s.18-.12.35-.12h12.06c.15,0,.26.04.34.12s.11.19.11.31v2.18c0,.23-.14.35-.41.35h-3.74c-.16,0-.25.07-.25.21v11.67c0,.27-.12.41-.35.41h-3.45c-.23,0-.35-.13-.35-.39v-11.61c0-.19-.07-.29-.21-.29h-3.78c-.29,0-.43-.12-.43-.35v-2.18Z"/>
          <path class="cls-3" d="M71.69,76.19c-1.09-.63-1.93-1.53-2.52-2.7-.59-1.17-.88-2.55-.88-4.14s.3-2.99.9-4.17c.6-1.18,1.44-2.09,2.53-2.73,1.08-.64,2.35-.96,3.8-.96s2.74.32,3.81.96,1.91,1.56,2.51,2.73c.6,1.18.89,2.57.89,4.17s-.29,2.97-.88,4.13c-.59,1.16-1.42,2.07-2.51,2.7s-2.36.95-3.82.95-2.74-.31-3.83-.94ZM77.71,73.13c.45-.75.67-1.99.67-3.72s-.23-3.09-.68-3.88c-.45-.79-1.18-1.19-2.18-1.19s-1.73.4-2.19,1.19c-.46.8-.69,2.09-.69,3.88s.23,2.97.68,3.72c.45.75,1.19,1.13,2.22,1.13s1.72-.38,2.17-1.13Z"/>
          <path class="cls-3" d="M97.6,76.75c-.08.12-.19.18-.34.18h-3.51c-.26,0-.43-.13-.51-.39l-2.06-5.53c-.08-.21-.29-.31-.62-.31h-1.42c-.1,0-.16.03-.19.08s-.05.1-.05.14v5.45c0,.37-.2.56-.62.56h-3.06c-.18,0-.3-.04-.37-.11s-.1-.2-.1-.36v-14.34c0-.29.12-.43.35-.43h6.66c1.92,0,3.4.37,4.46,1.11,1.05.74,1.58,1.79,1.58,3.16,0,.67-.12,1.28-.37,1.83-.25.55-.58,1.01-.99,1.39-.41.38-.88.66-1.4.85-.12.06-.15.18-.08.37l2.65,5.92c.07.16.06.31-.01.43ZM92.99,67.49c.34-.31.51-.73.51-1.26,0-.59-.2-1.04-.59-1.35-.39-.31-.87-.46-1.43-.46h-2.16c-.29,0-.43.12-.43.37v2.75c0,.27.1.41.31.41h2.28c.66,0,1.16-.15,1.5-.46Z"/>
          <path class="cls-3" d="M112.73,61.81c.05.08.03.19-.05.31l-4.83,7.85c-.08.12-.13.26-.15.41-.02.15-.03.42-.03.82v5.18c0,.37-.21.56-.62.56h-3.04c-.19,0-.32-.04-.39-.11-.07-.08-.1-.2-.1-.36v-5.47c0-.21-.02-.36-.06-.46-.04-.1-.11-.23-.21-.38l-4.83-7.93c-.08-.15-.1-.28-.04-.38.05-.1.18-.15.39-.15h3.62c.19,0,.33.03.4.08s.16.16.26.31l2.77,4.95c.07.12.13.19.17.2s.11-.05.2-.17l2.73-4.97c.07-.16.15-.27.24-.32.09-.05.22-.07.4-.07h2.86c.16,0,.27.04.32.12Z"/>
        </g>
        <path class="cls-9" d="M31.66,87.7c-.47.7-1.11,1.24-1.94,1.61-.82.37-1.79.56-2.9.56h-2.9c-.15,0-.22.07-.22.2v4.82c0,.35-.2.53-.61.53h-3.02c-.18,0-.3-.04-.36-.11s-.1-.19-.1-.35v-14.14c0-.28.11-.43.34-.43h6.4c1.11,0,2.11.17,3.02.52.9.34,1.63.87,2.17,1.58.54.71.81,1.6.81,2.69,0,.99-.23,1.83-.7,2.53ZM27.91,84.11c-.18-.27-.43-.48-.74-.62s-.66-.21-1.05-.21h-1.99c-.28,0-.43.14-.43.4v2.86c0,.27.1.41.3.41h2.23c.59,0,1.07-.17,1.42-.51s.53-.78.53-1.34c0-.39-.09-.72-.27-.99Z"/>
        <path class="cls-7" d="M46.93,95.24c-.07.12-.19.18-.33.18h-3.47c-.26,0-.43-.13-.51-.38l-2.03-5.45c-.08-.2-.28-.3-.61-.3h-1.4c-.09,0-.16.03-.19.08s-.05.1-.05.14v5.37c0,.37-.2.55-.61.55h-3.02c-.18,0-.3-.04-.36-.11s-.1-.19-.1-.35v-14.14c0-.28.11-.43.34-.43h6.57c1.89,0,3.36.36,4.4,1.09,1.04.73,1.56,1.77,1.56,3.12,0,.66-.12,1.26-.36,1.8-.24.54-.57,1-.97,1.37-.41.37-.86.65-1.38.84-.12.05-.15.18-.08.37l2.61,5.84c.07.16.06.3-.01.43ZM42.38,86.11c.34-.3.51-.72.51-1.25,0-.58-.19-1.02-.58-1.33-.39-.3-.85-.46-1.41-.46h-2.13c-.28,0-.43.12-.43.36v2.72c0,.27.1.4.3.4h2.25c.65,0,1.14-.15,1.48-.46Z"/>
        <path class="cls-8" d="M51.74,94.69c-1.07-.62-1.9-1.51-2.48-2.66-.58-1.15-.87-2.52-.87-4.08s.3-2.95.89-4.11c.59-1.16,1.42-2.06,2.49-2.7,1.07-.63,2.32-.95,3.75-.95s2.7.32,3.76.95,1.88,1.53,2.47,2.7c.59,1.16.88,2.53.88,4.11s-.29,2.93-.87,4.07c-.58,1.15-1.4,2.04-2.47,2.66s-2.32.94-3.77.94-2.71-.31-3.78-.93ZM57.67,91.67c.44-.74.66-1.97.66-3.67s-.22-3.05-.67-3.83c-.45-.78-1.16-1.17-2.15-1.17s-1.71.39-2.16,1.17c-.45.78-.68,2.06-.68,3.83s.22,2.93.67,3.67c.45.74,1.18,1.11,2.19,1.11s1.7-.37,2.14-1.11Z"/>
        <path class="cls-6" d="M70,94.64c-.76.66-1.88.98-3.38.98-.45,0-.87-.03-1.27-.08s-.8-.12-1.21-.2c-.2-.04-.35-.12-.44-.23-.09-.12-.12-.29-.11-.54l.18-2.09c.03-.31.18-.45.45-.4.16.03.34.06.54.11.2.05.42.07.68.07.51,0,.91-.15,1.18-.44s.42-.79.42-1.51v-9.5c0-.28.12-.43.37-.43h3.38c.23,0,.34.13.34.38v10.54c0,1.57-.38,2.68-1.14,3.33Z"/>
        <path class="cls-5" d="M73.85,80.38h10.6c.22,0,.32.13.32.38v2.11c0,.32-.16.49-.47.49h-6.28c-.28,0-.43.12-.43.36v2.29c0,.26.11.38.32.38h3.95c.26,0,.39.12.39.36v2.25c0,.08-.02.15-.07.21-.05.06-.13.09-.25.09h-4.03c-.2,0-.3.09-.3.28v2.57c0,.18.07.26.22.26h6.75c.27,0,.4.12.4.34v2.23c0,.11-.03.2-.1.29-.07.08-.18.12-.32.12h-10.56c-.32,0-.49-.16-.49-.47v-14.14c0-.28.11-.43.34-.43Z"/>
        <path class="cls-3" d="M95.14,80.53c.71.23,1.34.55,1.88.96.55.41,1,.9,1.35,1.45s.59,1.15.71,1.8c.07.26.08.42.03.5-.05.07-.14.12-.27.13l-3.16.22c-.14,0-.22-.03-.25-.09s-.06-.15-.09-.27c-.12-.65-.36-1.18-.73-1.6-.37-.42-.91-.63-1.64-.63-.88,0-1.57.37-2.09,1.1-.51.74-.77,1.97-.77,3.7s.24,2.99.72,3.73c.48.74,1.19,1.11,2.14,1.11.73,0,1.37-.19,1.91-.56.55-.37,1-1.01,1.35-1.91.07-.15.24-.2.51-.14l2.29.45c.05.01.12.06.19.13s.09.23.05.48c-.05.24-.17.55-.35.93s-.44.78-.76,1.2c-.32.42-.74.81-1.24,1.18-.5.36-1.09.66-1.76.89s-1.45.34-2.31.34c-1.43,0-2.67-.33-3.73-1-1.05-.67-1.86-1.6-2.43-2.79-.57-1.19-.85-2.55-.85-4.09s.28-2.87.85-4c.57-1.13,1.38-2,2.44-2.62s2.31-.93,3.74-.93c.81,0,1.57.11,2.28.34Z"/>
        <path class="cls-2" d="M99.97,80.81c0-.12.03-.22.1-.31s.18-.12.34-.12h11.89c.15,0,.26.04.33.12s.11.18.11.31v2.15c0,.23-.14.34-.4.34h-3.69c-.16,0-.24.07-.24.2v11.51c0,.27-.11.41-.34.41h-3.4c-.23,0-.34-.13-.34-.38v-11.45c0-.19-.07-.28-.2-.28h-3.73c-.28,0-.43-.11-.43-.34v-2.15Z"/>
        <g>
          <path class="cls-1" d="M19.87,100.38h.56c.07,0,.1.04.1.13v6.86c0,.07.03.1.1.1h3.67c.07,0,.1.03.1.09v.44s0,.05-.02.07c-.01.02-.04.03-.08.03h-4.43s-.08-.01-.1-.03-.03-.05-.03-.09v-7.46c0-.08.04-.13.11-.13Z"/>
          <path class="cls-1" d="M26.36,107.73c-.47-.31-.84-.76-1.09-1.35s-.38-1.29-.38-2.12.13-1.57.4-2.16c.26-.6.63-1.05,1.11-1.36.48-.31,1.04-.47,1.68-.47.46,0,.89.1,1.29.29s.72.44.99.75.42.65.47,1.01c0,.04,0,.07,0,.09,0,.02-.03.03-.06.05l-.59.09s-.05,0-.06-.01c-.01-.01-.02-.04-.03-.07-.06-.3-.18-.57-.36-.8-.18-.24-.42-.42-.7-.56s-.6-.21-.95-.21c-.51,0-.93.13-1.28.38-.35.26-.62.63-.8,1.12-.18.49-.28,1.09-.28,1.8,0,.74.09,1.36.27,1.86.18.5.45.87.81,1.12.36.25.79.37,1.3.37.36,0,.68-.06.95-.19.27-.13.5-.29.68-.5s.31-.43.41-.68.14-.47.15-.7v-.7c0-.07-.03-.1-.1-.1h-1.81s-.06,0-.07-.02c-.01-.01-.02-.03-.02-.06v-.36c0-.06.02-.08.07-.08h2.54s.06,0,.08.03.03.04.03.08v3.69s-.01.08-.03.1-.05.03-.08.03h-.22s-.08,0-.11-.02c-.03,0-.05-.04-.06-.1l-.06-1.02s-.02-.05-.04-.05-.04.02-.06.05c-.13.23-.3.44-.51.62-.21.19-.46.34-.75.45s-.63.17-1.03.17c-.65,0-1.21-.16-1.69-.47Z"/>
          <path class="cls-1" d="M32.91,108.07s-.03-.04-.03-.08v-7.48s.01-.08.03-.1c.02-.02.05-.03.09-.03h2.29c.9,0,1.6.17,2.08.51s.73.84.73,1.49c0,.42-.11.78-.33,1.07-.22.29-.56.51-1.03.66-.02,0-.03.02-.03.05,0,.03.01.04.03.05.49.11.87.32,1.14.62s.41.71.41,1.21c0,.69-.26,1.21-.77,1.55s-1.24.51-2.18.51h-2.36s-.06,0-.08-.03ZM35.42,103.9c.23,0,.45-.02.68-.07.22-.05.42-.12.61-.22.18-.1.33-.25.45-.44.11-.19.17-.42.17-.71,0-.51-.19-.88-.56-1.12-.37-.24-.87-.36-1.49-.36h-1.49c-.08,0-.12.03-.12.1v2.68c0,.08.03.12.09.12h1.66ZM35.3,107.49c.74,0,1.29-.11,1.65-.34s.54-.59.54-1.11c0-.37-.09-.67-.27-.9s-.43-.39-.74-.49c-.31-.1-.67-.16-1.06-.16h-1.62c-.09,0-.14.04-.14.12v2.75c0,.08.03.13.09.13h1.54Z"/>
          <path class="cls-1" d="M39.18,100.49s0-.06.02-.08c.01-.02.04-.03.08-.03h5.49s.07,0,.08.03c.01.02.02.04.02.08v.43c0,.06-.03.09-.1.09h-2.15c-.08,0-.11.03-.11.09v6.87c0,.08-.03.13-.1.13h-.56c-.08,0-.11-.04-.11-.13v-6.87c0-.06-.03-.09-.1-.09h-2.34c-.07,0-.1-.03-.1-.09v-.43Z"/>
          <path class="cls-1" d="M46.19,107.97v-7.48c0-.08.03-.11.1-.11h.45c.07,0,.1.03.1.1v2.81s0,.06.03.06c.02,0,.04,0,.07-.03.25-.19.48-.34.68-.47s.41-.22.61-.28c.2-.06.43-.09.66-.09.55,0,.96.14,1.25.43.28.28.43.66.43,1.13v3.92c0,.09-.04.13-.12.13h-.44s-.07-.01-.09-.03-.03-.05-.03-.09v-3.75c0-.37-.09-.65-.28-.86-.18-.2-.48-.31-.88-.31-.22,0-.43.03-.62.1-.19.07-.38.16-.58.29-.19.13-.41.29-.66.49v4.03c0,.08-.05.13-.13.13h-.43c-.08,0-.12-.04-.12-.13Z"/>
          <path class="cls-1" d="M52.96,101.33c0,.12-.05.19-.16.19h-.48c-.06,0-.09-.01-.11-.04-.02-.03-.03-.07-.03-.12v-.81c0-.1.05-.16.14-.16h.5c.09,0,.13.05.13.15v.8ZM52.92,107.94c0,.06-.01.1-.03.12-.02.02-.07.03-.14.03h-.38c-.06,0-.09,0-.11-.03-.02-.02-.03-.05-.03-.1v-5.26c0-.08.04-.12.11-.12h.46c.08,0,.11.04.11.12v5.23Z"/>
          <path class="cls-1" d="M57.31,103.21c-.26-.13-.57-.2-.93-.2-.4,0-.74.09-1,.26-.27.17-.4.4-.4.7,0,.16.06.31.18.45.12.14.37.27.73.39l1.35.42c.45.13.78.32.99.56s.31.52.31.84-.1.59-.29.82c-.19.24-.45.42-.79.56s-.71.2-1.12.2c-.53,0-.99-.11-1.4-.32-.41-.21-.7-.49-.87-.83-.01-.03-.02-.05-.02-.07s.01-.04.04-.06l.33-.2s.05-.02.08-.01c.02,0,.04.01.06.03.12.19.26.35.43.49.17.14.36.25.59.32s.48.11.77.11.54-.04.77-.12c.23-.08.41-.19.55-.34.13-.14.2-.31.2-.51,0-.21-.08-.39-.25-.53s-.46-.28-.86-.39l-1.06-.31c-.53-.15-.89-.34-1.09-.58-.2-.23-.3-.49-.3-.79,0-.33.09-.61.26-.85.18-.24.42-.43.73-.56s.67-.2,1.07-.2c.45,0,.85.09,1.21.26.35.17.63.41.82.71.02.02.03.04.03.06s-.01.04-.04.05l-.35.21s-.04,0-.06,0-.04,0-.06-.03c-.15-.22-.36-.4-.62-.54Z"/>
          <path class="cls-1" d="M61.03,103.12c-.06,0-.08.03-.08.08v3.49c0,.35.06.59.17.7.11.11.27.17.49.17h.76s.06,0,.08.03c.02.02.03.04.03.08v.28c0,.06-.03.09-.1.11-.06,0-.15.01-.28.02s-.24.01-.36.02c-.12,0-.21,0-.27,0-.43,0-.74-.1-.92-.3-.18-.2-.28-.52-.28-.96v-3.63c0-.06-.03-.09-.09-.09h-.88c-.06,0-.09-.03-.09-.08v-.36c0-.06.03-.08.08-.08h.92s.07-.03.07-.08l.1-1.66c0-.08.03-.13.09-.13h.37c.08,0,.11.04.11.13v1.65c0,.06.02.08.07.08h1.37c.06,0,.08.03.08.08v.36c0,.06-.03.08-.09.08h-1.36Z"/>
          <path class="cls-1" d="M64.46,107.84c-.39-.24-.7-.57-.91-1-.21-.43-.32-.92-.32-1.47s.11-1.07.33-1.5.52-.77.92-1.02c.39-.25.84-.37,1.36-.37s.97.12,1.36.36c.38.24.68.58.9,1.01.21.43.32.93.32,1.49s-.11,1.05-.33,1.48c-.22.43-.52.76-.9,1s-.84.36-1.36.36-.97-.12-1.36-.36ZM66.83,107.37c.28-.19.49-.45.64-.8.15-.35.22-.75.22-1.22s-.08-.88-.23-1.23c-.15-.35-.37-.62-.65-.81s-.61-.29-.99-.29-.71.1-1,.29c-.28.19-.5.46-.66.81-.16.35-.23.76-.23,1.23s.08.87.23,1.22c.16.35.38.61.66.8.28.19.62.28,1.01.28s.72-.09,1-.28Z"/>
          <path class="cls-1" d="M69.82,108.06s-.03-.05-.03-.09v-5.27c0-.08.03-.11.1-.11h.45c.06,0,.09.03.09.1v.69s.01.06.03.06.05,0,.07-.03c.19-.22.37-.4.55-.53s.36-.23.54-.3.36-.09.54-.09c.25,0,.37.04.37.13v.48c0,.06-.03.08-.08.07-.05,0-.11-.01-.17-.02s-.14-.01-.23-.01c-.16,0-.33.04-.51.11s-.35.17-.51.3-.29.26-.4.42-.16.31-.16.47v3.56c0,.08-.05.13-.13.13h-.43s-.07-.01-.09-.03Z"/>
          <path class="cls-1" d="M73.42,109.8c-.12-.01-.18-.05-.18-.11v-.3s.02-.08.06-.1.12-.03.24-.03h.64c.16,0,.3-.06.43-.17.13-.11.24-.25.32-.42.09-.17.14-.34.17-.51.02-.17.01-.32-.04-.45l-1.98-4.98s-.01-.08,0-.11c.01-.03.05-.05.1-.05h.47s.07,0,.1.02c.02.01.04.04.05.08l1.66,4.27c.03.06.06.09.09.09.03,0,.07-.05.09-.13l1.62-4.24s.03-.06.05-.07.05-.02.08-.02h.37s.07.01.09.04c.02.03.02.06,0,.08l-2.33,6c-.08.22-.18.4-.29.55-.11.14-.23.25-.37.33-.13.08-.29.14-.45.17-.17.03-.35.05-.55.05s-.36,0-.48-.01Z"/>
          <path class="cls-1" d="M84.27,107.07c-.2.39-.5.67-.9.86s-.9.28-1.49.28c-.62,0-1.13-.1-1.53-.3-.4-.2-.69-.5-.88-.91-.19-.41-.29-.93-.29-1.55v-4.92c0-.09.03-.13.1-.13h.56c.08,0,.12.04.12.13v5.14c0,.65.16,1.13.49,1.45s.81.48,1.47.48c.43,0,.79-.07,1.09-.21.29-.14.52-.36.67-.64s.22-.65.22-1.1v-5.12c0-.08.03-.11.1-.11h.46c.07,0,.1.04.1.11v5.11c0,.59-.1,1.08-.3,1.47Z"/>
          <path class="cls-1" d="M92.24,108.06s-.03.03-.06.03h-.66c-.08,0-.13-.02-.16-.07l-2.45-3.99c-.04-.06-.09-.05-.15,0l-1.27,1.42c-.06.06-.08.12-.08.19v2.32c0,.08-.05.13-.13.13h-.51s-.08,0-.1-.03c-.02-.02-.03-.05-.03-.1v-7.48c0-.07.03-.1.1-.1h.58c.06,0,.09.03.09.1v4s0,.06.02.07c.01,0,.04-.01.07-.05l3.64-4.05s.04-.05.07-.06c.02,0,.06-.02.11-.02h.58s.08.01.09.04c.01.03,0,.05-.03.08l-2.54,2.81s-.02.06,0,.1l2.81,4.58s.02.06.01.08Z"/>
          <path class="cls-1" d="M94.19,107.95c0,.1-.06.15-.17.15h-.59c-.09,0-.13-.04-.13-.13v-.79c0-.08.03-.11.09-.11h.72c.06,0,.08.03.08.1v.78Z"/>
          <path class="cls-1" d="M96.24,107.84c-.39-.24-.7-.57-.91-1-.21-.43-.32-.92-.32-1.47s.11-1.07.33-1.5.52-.77.92-1.02c.39-.25.84-.37,1.36-.37s.97.12,1.36.36c.38.24.68.58.9,1.01.21.43.32.93.32,1.49s-.11,1.05-.33,1.48c-.22.43-.52.76-.9,1s-.84.36-1.36.36-.97-.12-1.36-.36ZM98.61,107.37c.28-.19.49-.45.64-.8.15-.35.22-.75.22-1.22s-.08-.88-.23-1.23c-.15-.35-.37-.62-.65-.81s-.61-.29-.99-.29-.71.1-1,.29c-.28.19-.5.46-.66.81-.16.35-.23.76-.23,1.23s.08.87.23,1.22c.16.35.38.61.66.8.28.19.62.28,1.01.28s.72-.09,1-.28Z"/>
          <path class="cls-1" d="M101.6,108.06s-.03-.05-.03-.09v-5.27c0-.08.03-.11.1-.11h.45c.06,0,.09.03.09.1v.69s.01.06.03.06.05,0,.07-.03c.19-.22.37-.4.55-.53s.36-.23.54-.3.36-.09.54-.09c.25,0,.37.04.37.13v.48c0,.06-.03.08-.08.07-.05,0-.11-.01-.17-.02s-.14-.01-.23-.01c-.16,0-.33.04-.51.11s-.35.17-.51.3-.29.26-.4.42-.16.31-.16.47v3.56c0,.08-.05.13-.13.13h-.43s-.07-.01-.09-.03Z"/>
          <path class="cls-1" d="M110.4,102.57s.04.06.04.12v.26c0,.06-.01.11-.04.14-.02.03-.07.05-.15.05-.13,0-.23,0-.31.03-.08.02-.16.04-.24.08-.17.08-.24.16-.21.24.03.08.07.18.11.3.05.12.07.27.07.47,0,.3-.08.59-.23.84s-.39.46-.72.61-.74.22-1.25.22c-.37,0-.66.02-.87.07-.21.04-.36.1-.45.18s-.13.15-.13.22c0,.12.08.2.24.26s.42.09.79.11l1.3.07c.59.03,1.02.18,1.29.43.27.25.41.59.41.99,0,.53-.23.94-.68,1.23-.45.29-1.09.44-1.92.44s-1.49-.13-1.94-.39c-.45-.26-.67-.63-.67-1.11,0-.24.08-.47.24-.67.16-.2.4-.39.71-.56.08-.03.08-.07,0-.11-.14-.06-.25-.14-.32-.24-.08-.1-.12-.21-.12-.33,0-.09.03-.18.08-.27s.14-.17.25-.26c.11-.08.26-.15.44-.2.04-.01.06-.03.06-.06,0-.03-.03-.05-.07-.07-.29-.16-.51-.35-.65-.58s-.21-.5-.21-.82c0-.54.2-.97.6-1.28.4-.31.96-.47,1.69-.47.35,0,.65.04.9.12.25.08.46.2.63.35.03.03.07.04.1.05.03,0,.07-.01.1-.05.08-.06.16-.13.26-.2.1-.07.2-.13.32-.17.12-.04.24-.07.35-.07.08,0,.13.01.16.04ZM106.55,107.34c-.12,0-.26.03-.42.11-.16.08-.31.2-.43.35-.13.15-.19.33-.19.54,0,.23.08.43.24.59.16.16.39.29.7.37.31.09.68.13,1.13.13.6,0,1.06-.09,1.37-.27.31-.18.47-.46.47-.84,0-.26-.08-.46-.24-.62-.16-.16-.45-.24-.85-.26l-1.78-.1ZM108.65,105.12c.25-.21.38-.5.38-.88s-.13-.7-.38-.92c-.25-.22-.64-.33-1.15-.33s-.88.11-1.15.33c-.27.22-.41.53-.41.92s.14.68.41.89c.27.2.66.31,1.15.31s.9-.1,1.15-.31Z"/>
        </g>
      </g>
    </g>
  </g>
</svg>